<?xml version="1.0" encoding="UTF-8" standalone="no"?>
<!-- Created with Inkscape (http://www.inkscape.org/) -->

<svg
   xmlns:dc="http://purl.org/dc/elements/1.1/"
   xmlns:cc="http://creativecommons.org/ns#"
   xmlns:rdf="http://www.w3.org/1999/02/22-rdf-syntax-ns#"
   xmlns:svg="http://www.w3.org/2000/svg"
   xmlns="http://www.w3.org/2000/svg"
   xmlns:sodipodi="http://sodipodi.sourceforge.net/DTD/sodipodi-0.dtd"
   xmlns:inkscape="http://www.inkscape.org/namespaces/inkscape"
   width="48px"
   height="48px"
   id="svg3080"
   version="1.1"
   inkscape:version="0.91 r13725"
   sodipodi:docname="solver.svg"
   inkscape:export-filename="/home/rod/juan/hpc/j73/win/gui/fit.png"
   inkscape:export-xdpi="90"
   inkscape:export-ydpi="90">
  <defs
     id="defs3082">
    <marker
       inkscape:stockid="Arrow1Lend"
       orient="auto"
       refY="0.0"
       refX="0.0"
       id="Arrow1Lend"
       style="overflow:visible;"
       inkscape:isstock="true">
      <path
         id="path4194"
         d="M 0.0,0.0 L 5.0,-5.0 L -12.5,0.0 L 5.0,5.0 L 0.0,0.0 z "
         style="fill-rule:evenodd;stroke:#000000;stroke-width:1.0pt;"
         transform="scale(0.8) rotate(180) translate(12.5,0)" />
    </marker>
  </defs>
  <sodipodi:namedview
     id="base"
     pagecolor="#ffffff"
     bordercolor="#666666"
     borderopacity="1.0"
     inkscape:pageopacity="0.0"
     inkscape:pageshadow="2"
     inkscape:zoom="5.453876"
     inkscape:cx="31.855863"
     inkscape:cy="2.588532"
     inkscape:current-layer="layer1"
     showgrid="true"
     inkscape:grid-bbox="true"
     inkscape:document-units="px"
     inkscape:window-width="1920"
     inkscape:window-height="953"
     inkscape:window-x="0"
     inkscape:window-y="49"
     inkscape:window-maximized="1" />
  <metadata
     id="metadata3085">
    <rdf:RDF>
      <cc:Work
         rdf:about="">
        <dc:format>image/svg+xml</dc:format>
        <dc:type
           rdf:resource="http://purl.org/dc/dcmitype/StillImage" />
        <dc:title />
        <dc:creator>
          <cc:Agent>
            <dc:title>Roderick C. I. MacKenize</dc:title>
          </cc:Agent>
        </dc:creator>
      </cc:Work>
    </rdf:RDF>
  </metadata>
  <g
     id="layer1"
     inkscape:label="Layer 1"
     inkscape:groupmode="layer">
    <ellipse
       style="opacity:1;fill:#ffff00;fill-opacity:1;stroke:#fcffff;stroke-width:0;stroke-linecap:round;stroke-linejoin:round;stroke-miterlimit:4;stroke-dasharray:none;stroke-dashoffset:0;stroke-opacity:1"
       id="path4147"
       cx="23.744579"
       cy="23.65951"
       rx="7.0592017"
       ry="6.9216828" />
    <path
       style="fill:#ffff00;fill-rule:evenodd;stroke:#ffff00;stroke-width:1px;stroke-linecap:butt;stroke-linejoin:miter;stroke-opacity:1"
       d="M 20.810887,17.929643 C 24.569681,11.8789 18.060549,12.245612 19.619074,8.8535291 21.177598,5.4614457 23.483956,5.1251044 24.569681,4.4529886 26.494918,3.2611757 21.544312,6.286547 20.810887,8.9452071 c -0.733424,2.6586599 2.20027,2.5669819 3.025371,4.6755739 0.825101,2.108592 0,4.308862 0,4.308862 z"
       id="path4391"
       inkscape:connector-curvature="0"
       sodipodi:nodetypes="csssscc" />
    <path
       style="fill:#ffff00;fill-rule:evenodd;stroke:#ffff00;stroke-width:1px;stroke-linecap:butt;stroke-linejoin:miter;stroke-opacity:1"
       d="m 26.514252,18.403398 c 7.099532,-0.580221 2.931107,-5.592957 6.584618,-6.359169 3.653512,-0.766214 5.29637,0.887093 6.482644,1.359628 2.103534,0.837916 -3.273974,-1.340107 -5.847045,-0.347289 -2.573072,0.992818 -0.753492,3.295881 -1.956999,5.21383 -1.203504,1.917947 -3.462756,2.564293 -3.462756,2.564293 z"
       id="path4391-0"
       inkscape:connector-curvature="0"
       sodipodi:nodetypes="csssscc" />
    <path
       style="fill:#ffff00;fill-rule:evenodd;stroke:#ffff00;stroke-width:1px;stroke-linecap:butt;stroke-linejoin:miter;stroke-opacity:1"
       d="m 28.313141,20.549795 c 6.640448,2.577686 5.078889,-3.751991 8.700316,-2.846179 3.621427,0.905811 4.37759,3.110493 5.238515,4.053543 1.526614,1.672246 -2.360346,-2.635063 -5.108688,-2.865283 -2.748342,-0.230221 -2.116877,2.636174 -4.037001,3.836208 -1.92012,1.200033 -4.234862,0.795122 -4.234862,0.795122 z"
       id="path4391-0-6"
       inkscape:connector-curvature="0"
       sodipodi:nodetypes="csssscc" />
    <path
       style="fill:#ffff00;fill-rule:evenodd;stroke:#ffff00;stroke-width:1px;stroke-linecap:butt;stroke-linejoin:miter;stroke-opacity:1"
       d="m 30.780347,24.69348 c 4.714275,5.340003 6.234842,-0.999646 9.035472,1.468495 2.800632,2.468135 2.459542,4.773794 2.791055,6.006935 0.587845,2.18664 -0.886123,-3.424847 -3.221579,-4.891827 -2.335456,-1.46698 -3.091274,1.369163 -5.348073,1.553056 -2.256795,0.183896 -4.12686,-1.239073 -4.12686,-1.239073 z"
       id="path4391-0-6-2"
       inkscape:connector-curvature="0"
       sodipodi:nodetypes="csssscc" />
    <path
       style="fill:#ffff00;fill-rule:evenodd;stroke:#ffff00;stroke-width:1px;stroke-linecap:butt;stroke-linejoin:miter;stroke-opacity:1"
       d="m 27.976062,28.152825 c 1.97697,6.843363 6.063238,1.763433 7.53894,5.192361 1.475707,3.428924 0.181133,5.36709 -0.0467,6.623525 -0.404005,2.227944 0.664046,-3.474742 -0.819443,-5.799746 -1.48349,-2.325004 -3.379853,-0.08474 -5.49842,-0.883887 -2.118564,-0.799141 -3.200216,-2.885288 -3.200216,-2.885288 z"
       id="path4391-0-6-2-6"
       inkscape:connector-curvature="0"
       sodipodi:nodetypes="csssscc" />
    <path
       style="fill:#ffff00;fill-rule:evenodd;stroke:#ffff00;stroke-width:1px;stroke-linecap:butt;stroke-linejoin:miter;stroke-opacity:1"
       d="m 24.645042,30.102539 c -5.832178,4.089711 0.298489,6.307413 -2.466428,8.815495 -2.764911,2.508086 -5.018187,1.912136 -6.280594,2.104139 -2.238535,0.340463 3.502273,-0.498872 5.22042,-2.656267 1.718146,-2.157396 -1.016084,-3.224618 -0.947289,-5.487852 0.06879,-2.26323 1.691327,-3.96304 1.691327,-3.96304 z"
       id="path4391-0-6-2-6-1"
       inkscape:connector-curvature="0"
       sodipodi:nodetypes="csssscc" />
    <path
       style="fill:#ffff00;fill-rule:evenodd;stroke:#ffff00;stroke-width:1px;stroke-linecap:butt;stroke-linejoin:miter;stroke-opacity:1"
       d="m 20.299183,27.861001 c -6.613022,2.647258 -1.152157,6.208469 -4.41746,8.017622 -3.265299,1.809159 -5.322522,0.713603 -6.595378,0.611758 -2.2570641,-0.180597 3.523532,0.315449 5.689602,-1.391748 2.16607,-1.707198 -0.25156,-3.371543 0.333094,-5.55904 0.584649,-2.187493 2.552978,-3.471106 2.552978,-3.471106 z"
       id="path4391-0-6-2-6-1-8"
       inkscape:connector-curvature="0"
       sodipodi:nodetypes="csssscc" />
    <path
       style="fill:#ffff00;fill-rule:evenodd;stroke:#ffff00;stroke-width:1px;stroke-linecap:butt;stroke-linejoin:miter;stroke-opacity:1"
       d="m 16.857943,22.00252 c -4.151858,-5.788102 -6.30386,0.365934 -8.8413714,-2.371999 -2.5375161,-2.737927 -1.9657003,-4.997449 -2.1711948,-6.257729 -0.3643861,-2.234766 0.5363032,3.496736 2.7119516,5.19171 2.1756496,1.694973 3.2135646,-1.050516 5.4774066,-1.005932 2.263836,0.04458 3.980902,1.648843 3.980902,1.648843 z"
       id="path4391-0-6-2-6-1-8-7"
       inkscape:connector-curvature="0"
       sodipodi:nodetypes="csssscc"
       inkscape:transform-center-x="1.3104574"
       inkscape:transform-center-y="8.7624594" />
    <path
       style="fill:#ffff00;fill-rule:evenodd;stroke:#ffff00;stroke-width:1px;stroke-linecap:butt;stroke-linejoin:miter;stroke-opacity:1"
       d="m 17.30529,25.800396 c -6.526616,-2.853653 -5.231636,3.535893 -8.8119295,2.479136 -3.5802953,-1.05675 -4.2434193,-3.29118 -5.0640753,-4.269474 -1.455208,-1.73474 2.247865,2.731646 4.9841473,3.076819 2.7362815,0.345172 2.2254695,-2.545165 4.1941915,-3.663692 1.968714,-1.118527 4.264457,-0.616985 4.264457,-0.616985 z"
       id="path4391-0-6-2-6-1-8-7-9"
       inkscape:connector-curvature="0"
       sodipodi:nodetypes="csssscc"
       inkscape:transform-center-x="-2.8540121"
       inkscape:transform-center-y="9.337773" />
    <path
       style="fill:#ffff00;fill-rule:evenodd;stroke:#ffff00;stroke-width:1px;stroke-linecap:butt;stroke-linejoin:miter;stroke-opacity:1"
       d="m 18.390616,19.371574 c -1.87989,-6.870667 -6.037665,-1.849096 -7.464674,-5.298573 -1.427016,-3.449472 -0.105133,-5.3691177 0.140466,-6.6221998 0.435505,-2.2220015 -0.713172,3.4649928 0.737252,5.8107658 1.450426,2.345773 3.378314,0.13258 5.485356,0.961641 2.107038,0.829055 3.159047,2.930305 3.159047,2.930305 z"
       id="path4391-0-6-2-6-1-8-7-2"
       inkscape:connector-curvature="0"
       sodipodi:nodetypes="csssscc"
       inkscape:transform-center-x="4.2381612"
       inkscape:transform-center-y="7.5586931" />
    <path
       style="fill:#ffff00;fill-rule:evenodd;stroke:#ffff00;stroke-width:1px;stroke-linecap:butt;stroke-linejoin:miter;stroke-opacity:1"
       d="m 25.850868,27.878285 c -2.348607,6.724884 3.923838,4.947327 3.142658,8.597669 -0.781173,3.650343 -2.958647,4.481614 -3.87164,5.374352 -1.618947,1.583024 2.552627,-2.449261 2.688528,-5.203878 0.135901,-2.754617 -2.707172,-2.025292 -3.9723,-3.903166 -1.26513,-1.877868 -0.939783,-4.205126 -0.939783,-4.205126 z"
       id="path4391-0-6-2-6-0"
       inkscape:connector-curvature="0"
       sodipodi:nodetypes="csssscc" />
    <path
       style="fill:#ffff00;fill-rule:evenodd;stroke:#ffff00;stroke-width:1px;stroke-linecap:butt;stroke-linejoin:miter;stroke-opacity:1"
       d="m 24.270502,15.856899 c 6.705967,-2.402088 1.379863,-6.1618609 4.709535,-7.8496169 3.329668,-1.687763 5.345177,-0.517238 6.613424,-0.368618 2.248889,0.263541 -3.509536,-0.444911 -5.736967,1.181414 -2.227431,1.6263249 0.127309,3.3785179 -0.537455,5.5430149 -0.664757,2.164495 -2.678992,3.3748 -2.678992,3.3748 z"
       id="path4391-0-6-2-6-0-2"
       inkscape:connector-curvature="0"
       sodipodi:nodetypes="csssscc" />
    <ellipse
       style="opacity:1;fill:none;fill-opacity:1;stroke:#ffffff;stroke-width:0.67485344;stroke-linecap:round;stroke-linejoin:round;stroke-miterlimit:4;stroke-dasharray:none;stroke-dashoffset:0;stroke-opacity:1"
       id="path4567"
       cx="23.607065"
       cy="23.246962"
       rx="6.0590472"
       ry="5.9215298" />
  </g>
</svg>
